<svg height='200' width='200'  fill="#000000" xmlns="http://www.w3.org/2000/svg" xmlns:xlink="http://www.w3.org/1999/xlink" version="1.1" x="0px" y="0px" viewBox="0 0 100 100" enable-background="new 0 0 100 100" xml:space="preserve"><path fill="none" d="M49.097,93.891c0,0.77,0,1.434,0,1.952c0.446,0.016,0.895,0.025,1.345,0.028c0-0.51,0-1.17,0-1.951  C49.992,93.917,49.543,93.907,49.097,93.891z"></path><g><path fill="#000000" d="M11.781,93.242l7.91-17.521H9.654c-5.036,0-9.133-4.005-9.133-8.928V15.686   c0-4.922,4.098-8.927,9.133-8.927h80.232c5.037,0,9.134,4.005,9.134,8.927v51.107c0,4.923-4.097,8.928-9.134,8.928H49.109   L11.781,93.242z M9.654,12.009c-2.073,0-3.761,1.649-3.761,3.677v51.107c0,2.027,1.688,3.676,3.761,3.676h18.28l-5.365,11.883   l25.316-11.883h42c2.074,0,3.761-1.648,3.761-3.676V15.686c0-2.028-1.687-3.677-3.761-3.677H9.654z"></path></g></svg>