<?xml version="1.0" encoding="iso-8859-1"?>
<!-- Courtesy https://www.shareicon.net/pollution-press-industry-industrial-power-plant-machine-press-801615 available under https://profile.flaticon.com/license/free -->
<!-- Generator: Adobe Illustrator 19.0.0, SVG Export Plug-In . SVG Version: 6.00 Build 0)  -->
<svg version="1.1" id="Layer_1" xmlns="http://www.w3.org/2000/svg" xmlns:xlink="http://www.w3.org/1999/xlink" x="0px" y="0px"
	 viewBox="0 0 484.161 484.161" style="enable-background:new 0 0 484.161 484.161;" xml:space="preserve">
<g>
	<g>
		<g>
			<path d="M122.294,194.679h239.572c9.64,0,17.481-7.842,17.481-17.481v-19.965c0-9.64-7.842-17.482-17.481-17.482h-10.338
				L326.574,89.84h-22.092V59.893h-19.964V15h52.393V0H147.25v15h52.393v44.893h-19.964v29.946h-22.09l-24.957,49.911h-10.337
				c-9.64,0-17.482,7.843-17.482,17.482v19.965C104.813,186.837,112.656,194.679,122.294,194.679z M214.643,15h54.876v44.893
				h-54.876V15z M194.679,74.893h94.804v14.946h-94.804V74.893z M166.859,104.839h27.794v22.447h15v-22.447h24.929v22.447h15
				v-22.447h24.929v22.447h15v-22.447h27.793l17.456,34.911H149.404L166.859,104.839z M119.813,157.232
				c0-1.346,1.137-2.482,2.482-2.482h239.572c1.345,0,2.481,1.137,2.481,2.482v19.965c0,1.345-1.137,2.481-2.481,2.481H122.294
				c-1.346,0-2.482-1.137-2.482-2.481V157.232z"/>
			<rect x="227.108" y="29.946" width="29.946" height="15"/>
			<path d="M376.84,259.536H107.322c-9.64,0-17.482,7.843-17.482,17.482v19.964c0,9.64,7.843,17.482,17.482,17.482h25.311
				l24.957,49.911h22.09v14.946h-54.902v89.84H97.339v15h289.483v-15h-27.438v-89.84h-54.902v-14.946h22.092l24.955-49.911h25.311
				c9.64,0,17.482-7.843,17.482-17.482v-19.964C394.323,267.379,386.48,259.536,376.84,259.536z M289.483,469.162h-94.804v-44.894
				h94.804V469.162z M344.385,394.322v74.84h-39.902v-59.894H179.679v59.894h-39.902v-74.84H344.385z M194.679,379.322v-14.946
				h94.804v14.946H194.679z M317.303,349.376H289.51V326.93h-15v22.446h-24.929V326.93h-15v22.446h-24.929V326.93h-15v22.446
				h-27.794l-17.455-34.911h185.355L317.303,349.376z M376.841,299.464H107.322c-1.346,0-2.482-1.137-2.482-2.482v-19.964
				c0-1.346,1.137-2.482,2.482-2.482H376.84c1.346,0,2.482,1.137,2.482,2.482v19.964h0.001
				C379.323,298.328,378.186,299.464,376.841,299.464z"/>
			<rect x="227.108" y="439.216" width="29.946" height="15"/>
		</g>
	</g>
</g>
<g>
</g>
<g>
</g>
<g>
</g>
<g>
</g>
<g>
</g>
<g>
</g>
<g>
</g>
<g>
</g>
<g>
</g>
<g>
</g>
<g>
</g>
<g>
</g>
<g>
</g>
<g>
</g>
<g>
</g>
</svg>
