<?xml version="1.0" encoding="UTF-8"?>
<!-- Courtesy DDara under iconscout basic license -->
<svg xmlns="http://www.w3.org/2000/svg" xmlns:xlink="http://www.w3.org/1999/xlink" version="1.1" id="Layer_1_1_" x="0px" y="0px" viewBox="0 0 64 64" xml:space="preserve"><path d="M10 41h2v2h-2z"/><path d="M24 41h2v2h-2z"/><path d="M38 41h2v2h-2z"/><path d="M52 41h2v2h-2z"/><path d="M59.639 15.891a5.279 5.279 0 0 0-2.276-.842C58.847 13.764 60 11.963 60 10h1V8h-1.141c-.474-3.305-2.139-4.881-4.049-5.554A.98.98 0 0 0 55 2h-4a.98.98 0 0 0-.81.446c-1.91.673-3.575 2.249-4.049 5.554H45v2h1c0 1.963 1.153 3.764 2.637 5.049A5.284 5.284 0 0 0 44.008 20H40c-1.654 0-3 1.346-3 3s1.346 3 3 3h7v10h-3v-7a1 1 0 0 0-1-1h-8a1 1 0 0 0-1 1v7h-4v-7a1 1 0 0 0-1-1h-8a1 1 0 0 0-1 1v7h-1V26h5c1.654 0 3-1.346 3-3s-1.346-3-3-3h-4.009a5.286 5.286 0 0 0-4.629-4.951C16.847 13.764 18 11.963 18 10h1V8h-1.141c-.474-3.305-2.139-4.881-4.049-5.554A.98.98 0 0 0 13 2H9a.98.98 0 0 0-.81.446C6.28 3.119 4.615 4.695 4.141 8H3v2h1c0 1.963 1.153 3.764 2.637 5.049A5.284 5.284 0 0 0 2 20.303V37h2V20.303c0-1.107.55-2.134 1.471-2.748A3.29 3.29 0 0 1 7 17.023V20a1 1 0 0 0 1 1h6a1 1 0 0 0 1-1v-2.978a3.29 3.29 0 0 1 1.529.532A3.298 3.298 0 0 1 18 20.303V21a1 1 0 0 0 1 1h5a1.001 1.001 0 0 1 0 2h-6a1 1 0 0 0-1 1v11h-1v-7a1 1 0 0 0-1-1H7a1 1 0 0 0-1 1v7.35c-2.327.826-4 3.043-4 5.65 0 2.967 2.167 5.431 5 5.91V54H6c-.334 0-.646.167-.832.445l-2 3A1 1 0 0 0 4 59h8a1 1 0 0 0 .832-1.554l-2-3A1 1 0 0 0 10 54H9v-6h8v9h-2v2h3a1 1 0 0 0 1-1V48h28v10a1 1 0 0 0 1 1h2v-2h-1v-9h6v6h-1c-.334 0-.646.167-.832.445l-2 3A1 1 0 0 0 52 59h8a1 1 0 0 0 .832-1.554l-2-3A1 1 0 0 0 58 54h-1v-6.09c2.833-.478 5-2.942 5-5.91 0-3.309-2.691-6-6-6h-7V25a1 1 0 0 0-1-1h-8a1.001 1.001 0 0 1 0-2h5a1 1 0 0 0 1-1v-.697c0-1.107.55-2.134 1.471-2.748A3.29 3.29 0 0 1 49 17.023V20a1 1 0 0 0 1 1h6a1 1 0 0 0 1-1v-2.978a3.29 3.29 0 0 1 1.529.532A3.298 3.298 0 0 1 60 20.303V37h2V20.303a5.29 5.29 0 0 0-2.361-4.412zM8 4.776V6h2V4.075c.317-.042.643-.075 1-.075s.683.033 1 .075V6h2V4.776c.962.646 1.554 1.723 1.821 3.224H6.179C6.446 6.499 7.038 5.422 8 4.776zM16 10c0 2.686-3.354 5-5 5s-5-2.314-5-5h10zm-7 9v-2h4v2H9zm1.132 38H5.868l.667-1h2.93l.667 1zm48 0h-4.264l.667-1h2.93l.667 1zM53 45c-1.654 0-3-1.346-3-3s1.346-3 3-3 3 1.346 3 3-1.346 3-3 3zm-5-3c0 1.641.806 3.088 2.031 4h-8.062C43.194 45.088 44 43.641 44 42s-.806-3.088-2.031-4h8.062C48.806 38.912 48 40.359 48 42zm-37-3c1.654 0 3 1.346 3 3s-1.346 3-3 3-3-1.346-3-3 1.346-3 3-3zm5 3c0-1.641-.806-3.088-2.031-4h8.062C20.806 38.912 20 40.359 20 42s.806 3.088 2.031 4h-8.062C15.194 45.088 16 43.641 16 42zm12 0c0 1.654-1.346 3-3 3s-3-1.346-3-3 1.346-3 3-3 3 1.346 3 3zm2 0c0-1.641-.806-3.088-2.031-4h8.062C34.806 38.912 34 40.359 34 42s.806 3.088 2.031 4h-8.062C29.194 45.088 30 43.641 30 42zm12 0c0 1.654-1.346 3-3 3s-3-1.346-3-3 1.346-3 3-3 3 1.346 3 3zm-6-12h2v3h2v-3h2v6h-6v-6zm-14 0h2v3h2v-3h2v6h-6v-6zM8 30h2v3h2v-3h2v6H8v-6zM4 42c0-2.206 1.794-4 4-4h.031C6.806 38.912 6 40.359 6 42s.806 3.088 2.031 4H8c-2.206 0-4-1.794-4-4zm56 0c0 2.206-1.794 4-4 4h-.031C57.194 45.088 58 43.641 58 42s-.806-3.088-2.031-4H56c2.206 0 4 1.794 4 4zM50 4.776V6h2V4.075c.317-.042.643-.075 1-.075s.683.033 1 .075V6h2V4.776c.962.646 1.554 1.723 1.821 3.224H48.18c.266-1.501.858-2.578 1.82-3.224zM58 10c0 2.686-3.354 5-5 5s-5-2.314-5-5h10zm-7 9v-2h4v2h-4z"/><metadata><rdf:RDF xmlns:rdf="http://www.w3.org/1999/02/22-rdf-syntax-ns#" xmlns:rdfs="http://www.w3.org/2000/01/rdf-schema#" xmlns:dc="http://purl.org/dc/elements/1.1/"><rdf:Description about="https://iconscout.com/legal#licenses" dc:title="quality,control,check,labor,worker,employee,manufacturing" dc:description="quality,control,check,labor,worker,employee,manufacturing" dc:publisher="Iconscout" dc:date="2017-09-21" dc:format="image/svg+xml" dc:language="en"><dc:creator><rdf:Bag><rdf:li>DDara .</rdf:li></rdf:Bag></dc:creator></rdf:Description></rdf:RDF></metadata></svg>
