<!-- Courtesy Kris Brauer thenounproject.com - Purchased Royalty Free License -->
<svg height='200' width='200'  fill="#000000" xmlns="http://www.w3.org/2000/svg" xmlns:xlink="http://www.w3.org/1999/xlink" version="1.1" x="0px" y="0px" viewBox="0 0 100 100" enable-background="new 0 0 100 100" xml:space="preserve"><path fill="#000000" d="M59.59,96.5c-0.193,0-0.388-0.037-0.573-0.114C58.455,96.154,58.09,95.606,58.09,95v-5.311l-15.8,6.559  c-0.559,0.231-1.206,0.104-1.636-0.324c-0.429-0.43-0.558-1.075-0.325-1.636l2.033-4.907l-17.107,0.013h-0.001  c-0.606,0-1.153-0.365-1.386-0.926s-0.104-1.206,0.325-1.635l3.755-3.755L12.14,76.542c-0.561-0.231-0.927-0.778-0.927-1.386  c0-0.606,0.365-1.153,0.926-1.386l4.907-2.032L4.94,59.651c-0.43-0.429-0.559-1.074-0.326-1.635C4.846,57.455,5.394,57.09,6,57.09  h5.311l-6.559-15.8c-0.232-0.561-0.104-1.206,0.325-1.636c0.428-0.429,1.075-0.558,1.635-0.325l4.906,2.032l-0.012-17.106  c0-0.606,0.365-1.154,0.926-1.387c0.561-0.231,1.205-0.104,1.635,0.325l3.755,3.755l6.536-15.809  c0.231-0.561,0.778-0.927,1.386-0.927l0,0c0.606,0,1.153,0.365,1.386,0.926l2.032,4.907L41.349,3.94  c0.429-0.431,1.074-0.56,1.635-0.326C43.545,3.846,43.91,4.394,43.91,5v5.311l15.8-6.559c0.557-0.233,1.205-0.105,1.636,0.325  c0.429,0.429,0.558,1.074,0.325,1.635l-2.032,4.906l17.106-0.012h0.001c0.606,0,1.153,0.365,1.386,0.926s0.104,1.206-0.325,1.635  l-3.755,3.755l15.809,6.536c0.561,0.231,0.927,0.778,0.927,1.386c0,0.606-0.365,1.153-0.926,1.386l-4.907,2.032l11.97,11.951  c0.362,0.274,0.596,0.708,0.596,1.197c0,0.828-0.671,1.5-1.5,1.5c-0.005,0-0.013,0-0.02,0h-5.311l6.471,15.589  c0.141,0.229,0.222,0.498,0.222,0.786c0,0.828-0.671,1.5-1.5,1.5c-0.007,0.001-0.015,0-0.02,0c-0.193,0-0.389-0.037-0.574-0.114  l-4.907-2.032l0.013,16.86c0.013,0.081,0.02,0.163,0.02,0.247c0,0.828-0.671,1.5-1.5,1.5c-0.006,0.001-0.013,0-0.02,0  c-0.39,0-0.773-0.152-1.061-0.439l-3.755-3.755L77.542,88.86c-0.231,0.561-0.778,0.927-1.386,0.927l0,0  c-0.606,0-1.153-0.365-1.386-0.926l-2.032-4.907L60.651,96.06C60.364,96.348,59.98,96.5,59.59,96.5z M44.607,86.379  c0.501,0,0.969,0.25,1.247,0.666c0.278,0.417,0.33,0.945,0.139,1.408l-1.505,3.634l14.526-6.03c0.465-0.189,0.993-0.14,1.408,0.139  c0.417,0.278,0.667,0.746,0.667,1.247v3.933l11.113-11.13c0.354-0.355,0.863-0.508,1.354-0.412c0.492,0.098,0.902,0.435,1.094,0.897  l1.505,3.634l6.009-14.535c0.191-0.463,0.602-0.8,1.093-0.897c0.49-0.098,0.999,0.056,1.354,0.41l2.78,2.78l-0.012-15.729  c0-0.501,0.25-0.97,0.666-1.248s0.945-0.331,1.408-0.139l3.634,1.505l-6.03-14.526c-0.191-0.463-0.14-0.991,0.139-1.408  s0.746-0.667,1.247-0.667h3.933l-11.13-11.113c-0.354-0.354-0.51-0.862-0.412-1.354c0.098-0.492,0.435-0.902,0.897-1.094  l3.634-1.505l-14.535-6.009c-0.463-0.191-0.8-0.602-0.897-1.093c-0.099-0.491,0.056-0.999,0.41-1.354l2.78-2.78L57.394,13.62h-0.001  c-0.501,0-0.969-0.25-1.247-0.666c-0.278-0.417-0.33-0.945-0.139-1.408l1.505-3.633l-14.526,6.03  c-0.464,0.191-0.991,0.142-1.408-0.139c-0.417-0.278-0.667-0.746-0.667-1.247V8.625l-11.113,11.13  c-0.354,0.354-0.863,0.507-1.354,0.412c-0.492-0.098-0.902-0.435-1.094-0.897l-1.505-3.634l-6.009,14.535  c-0.191,0.463-0.602,0.8-1.093,0.897c-0.491,0.1-0.999-0.056-1.354-0.41l-2.78-2.78l0.011,15.729c0,0.501-0.25,0.97-0.666,1.248  c-0.417,0.277-0.946,0.329-1.408,0.139l-3.633-1.505l6.03,14.526c0.191,0.463,0.14,0.991-0.139,1.408s-0.746,0.667-1.247,0.667  H9.625l11.13,11.113c0.354,0.354,0.51,0.862,0.412,1.354c-0.098,0.492-0.435,0.902-0.897,1.094l-3.634,1.505l14.535,6.009  c0.463,0.191,0.8,0.602,0.897,1.093c0.099,0.491-0.056,0.999-0.41,1.354l-2.78,2.78L44.607,86.379L44.607,86.379z"></path><g><path fill="#000000" d="M51,58.75c-4.825,0-8.75-3.925-8.75-8.75s3.925-8.75,8.75-8.75s8.75,3.925,8.75,8.75S55.825,58.75,51,58.75   z M51,43.75c-3.446,0-6.25,2.804-6.25,6.25s2.804,6.25,6.25,6.25s6.25-2.804,6.25-6.25S54.446,43.75,51,43.75z"></path></g></svg>
